<?xml version="1.0" encoding="utf-8"?>
<!-- Generator: Adobe Illustrator 16.0.0, SVG Export Plug-In . SVG Version: 6.00 Build 0)  -->
<!DOCTYPE svg PUBLIC "-//W3C//DTD SVG 1.1//EN" "http://www.w3.org/Graphics/SVG/1.1/DTD/svg11.dtd">
<svg version="1.1" id="Layer_1" xmlns="http://www.w3.org/2000/svg" xmlns:xlink="http://www.w3.org/1999/xlink" x="0px" y="0px"
	 width="494.382px" height="502.247px" viewBox="0 0 494.382 502.247" enable-background="new 0 0 494.382 502.247"
	 xml:space="preserve">
<g>
	<defs>
		<polygon id="SVGID_1_" points="221.743,493.302 133.886,462.365 118.379,453.412 47.657,392.793 22.933,349.968 5.797,258.414 
			5.797,240.507 22.933,148.953 47.657,106.127 118.379,45.51 133.886,36.557 221.743,5.619 271.192,5.619 359.05,36.557 
			374.557,45.51 445.278,106.127 470.003,148.953 487.139,240.507 487.139,258.414 470.003,349.968 445.278,392.793 
			374.557,453.412 359.05,462.365 271.192,493.302 		"/>
	</defs>
	<clipPath id="SVGID_2_">
		<use xlink:href="#SVGID_1_"  overflow="visible"/>
	</clipPath>
	<g clip-path="url(#SVGID_2_)">
		<path fill="none" stroke="#D62327" stroke-width="10" stroke-linejoin="round" stroke-miterlimit="10" stroke-opacity="0.46" d="
			M482.166,39.702L395.204,9.08"/>
		<path fill="none" stroke="#D62327" stroke-width="10" stroke-linejoin="round" stroke-miterlimit="10" stroke-opacity="0.46" d="
			M310.275-59.54l70,60"/>
		<path fill="none" stroke="#D62327" stroke-width="10" stroke-linejoin="round" stroke-miterlimit="10" stroke-opacity="0.46" d="
			M308.961,39.702L221.999,9.08"/>
		<path fill="none" stroke="#D62327" stroke-width="10" stroke-linejoin="round" stroke-miterlimit="10" stroke-opacity="0.46" d="
			M529.07-59.54l-70,60"/>
		<path fill="none" stroke="#D62327" stroke-width="10" stroke-linejoin="round" stroke-miterlimit="10" stroke-opacity="0.46" d="
			M357.18,39.702L444.142,9.08"/>
		<path fill="none" stroke="#D62327" stroke-width="10" stroke-linejoin="round" stroke-miterlimit="10" stroke-opacity="0.46" d="
			M137.07-59.54l70,60"/>
		<path fill="none" stroke="#D62327" stroke-width="10" stroke-linejoin="round" stroke-miterlimit="10" stroke-opacity="0.46" d="
			M135.756,39.702L48.794,9.08"/>
		<path fill="none" stroke="#D62327" stroke-width="10" stroke-linejoin="round" stroke-miterlimit="10" stroke-opacity="0.46" d="
			M355.865-59.54l-70,60"/>
		<path fill="none" stroke="#D62327" stroke-width="10" stroke-linejoin="round" stroke-miterlimit="10" stroke-opacity="0.46" d="
			M183.975,39.702L270.937,9.08"/>
		<path fill="none" stroke="#D62327" stroke-width="10" stroke-linejoin="round" stroke-miterlimit="10" stroke-opacity="0.46" d="
			M-36.135-59.54l70,60"/>
		<path fill="none" stroke="#D62327" stroke-width="10" stroke-linejoin="round" stroke-miterlimit="10" stroke-opacity="0.46" d="
			M182.66-59.54l-70,60"/>
		<path fill="none" stroke="#D62327" stroke-width="10" stroke-linejoin="round" stroke-miterlimit="10" stroke-opacity="0.46" d="
			M10.77,39.702L97.731,9.08"/>
		<path fill="none" stroke="#D62327" stroke-width="10" stroke-linejoin="round" stroke-miterlimit="10" stroke-opacity="0.46" d="
			M372.769,48.702L355.807-41.92"/>
		<path fill="none" stroke="#D62327" stroke-width="10" stroke-linejoin="round" stroke-miterlimit="10" stroke-opacity="0.46" d="
			M568.769,189.702l-86.962-30.622"/>
		<path fill="none" stroke="#D62327" stroke-width="10" stroke-linejoin="round" stroke-miterlimit="10" stroke-opacity="0.46" d="
			M396.878,90.46l70,60"/>
		<path fill="none" stroke="#D62327" stroke-width="10" stroke-linejoin="round" stroke-miterlimit="10" stroke-opacity="0.46" d="
			M199.563,48.702L182.602-41.92"/>
		<path fill="none" stroke="#D62327" stroke-width="10" stroke-linejoin="round" stroke-miterlimit="10" stroke-opacity="0.46" d="
			M395.563,189.702l-86.962-30.622"/>
		<path fill="none" stroke="#D62327" stroke-width="10" stroke-linejoin="round" stroke-miterlimit="10" stroke-opacity="0.46" d="
			M443.782,189.702l86.962-30.622"/>
		<path fill="none" stroke="#D62327" stroke-width="10" stroke-linejoin="round" stroke-miterlimit="10" stroke-opacity="0.46" d="
			M223.673,90.46l70,60"/>
		<path fill="none" stroke="#D62327" stroke-width="10" stroke-linejoin="round" stroke-miterlimit="10" stroke-opacity="0.46" d="
			M26.358,48.702L9.396-41.92"/>
		<path fill="none" stroke="#D62327" stroke-width="10" stroke-linejoin="round" stroke-miterlimit="10" stroke-opacity="0.46" d="
			M222.358,189.702l-86.962-30.622"/>
		<path fill="none" stroke="#D62327" stroke-width="10" stroke-linejoin="round" stroke-miterlimit="10" stroke-opacity="0.46" d="
			M442.468,90.46l-70,60"/>
		<path fill="none" stroke="#D62327" stroke-width="10" stroke-linejoin="round" stroke-miterlimit="10" stroke-opacity="0.46" d="
			M466.577,48.702l16.962-90.622"/>
		<path fill="none" stroke="#D62327" stroke-width="10" stroke-linejoin="round" stroke-miterlimit="10" stroke-opacity="0.46" d="
			M270.577,189.702l86.962-30.622"/>
		<path fill="none" stroke="#D62327" stroke-width="10" stroke-linejoin="round" stroke-miterlimit="10" stroke-opacity="0.46" d="
			M50.468,90.46l70,60"/>
		<path fill="none" stroke="#D62327" stroke-width="10" stroke-linejoin="round" stroke-miterlimit="10" stroke-opacity="0.46" d="
			M49.153,189.702l-86.962-30.622"/>
		<path fill="none" stroke="#D62327" stroke-width="10" stroke-linejoin="round" stroke-miterlimit="10" stroke-opacity="0.46" d="
			M269.263,90.46l-70,60"/>
		<path fill="none" stroke="#D62327" stroke-width="10" stroke-linejoin="round" stroke-miterlimit="10" stroke-opacity="0.46" d="
			M293.372,48.702l16.962-90.622"/>
		<path fill="none" stroke="#D62327" stroke-width="10" stroke-linejoin="round" stroke-miterlimit="10" stroke-opacity="0.46" d="
			M97.372,189.702l86.962-30.622"/>
		<path fill="none" stroke="#D62327" stroke-width="10" stroke-linejoin="round" stroke-miterlimit="10" stroke-opacity="0.46" d="
			M96.058,90.46l-70,60"/>
		<path fill="none" stroke="#D62327" stroke-width="10" stroke-linejoin="round" stroke-miterlimit="10" stroke-opacity="0.46" d="
			M120.167,48.702l16.962-90.622"/>
		<path fill="none" stroke="#D62327" stroke-width="10" stroke-linejoin="round" stroke-miterlimit="10" stroke-opacity="0.46" d="
			M-75.833,189.702l86.962-30.622"/>
		<path fill="none" stroke="#D62327" stroke-width="10" stroke-linejoin="round" stroke-miterlimit="10" stroke-opacity="0.46" d="
			M459.371,198.702l-16.962-90.622"/>
		<path fill="none" stroke="#D62327" stroke-width="10" stroke-linejoin="round" stroke-miterlimit="10" stroke-opacity="0.46" d="
			M459.371,0.219l-16.962,90.622"/>
		<path fill="none" stroke="#D62327" stroke-width="10" stroke-linejoin="round" stroke-miterlimit="10" stroke-opacity="0.46" d="
			M483.48,240.46l70,60"/>
		<path fill="none" stroke="#D62327" stroke-width="10" stroke-linejoin="round" stroke-miterlimit="10" stroke-opacity="0.46" d="
			M286.166,198.702l-16.962-90.622"/>
		<path fill="none" stroke="#D62327" stroke-width="10" stroke-linejoin="round" stroke-miterlimit="10" stroke-opacity="0.46" d="
			M482.166,339.702l-86.962-30.622"/>
		<path fill="none" stroke="#D62327" stroke-width="10" stroke-linejoin="round" stroke-miterlimit="10" stroke-opacity="0.46" d="
			M286.166,0.219l-16.962,90.622"/>
		<path fill="none" stroke="#D62327" stroke-width="10" stroke-linejoin="round" stroke-miterlimit="10" stroke-opacity="0.46" d="
			M310.275,240.46l70,60"/>
		<path fill="none" stroke="#D62327" stroke-width="10" stroke-linejoin="round" stroke-miterlimit="10" stroke-opacity="0.46" d="
			M112.961,198.702L95.999,108.08"/>
		<path fill="none" stroke="#D62327" stroke-width="10" stroke-linejoin="round" stroke-miterlimit="10" stroke-opacity="0.46" d="
			M308.961,339.702l-86.962-30.622"/>
		<path fill="none" stroke="#D62327" stroke-width="10" stroke-linejoin="round" stroke-miterlimit="10" stroke-opacity="0.46" d="
			M529.07,240.46l-70,60"/>
		<path fill="none" stroke="#D62327" stroke-width="10" stroke-linejoin="round" stroke-miterlimit="10" stroke-opacity="0.46" d="
			M112.961,0.219L95.999,90.841"/>
		<path fill="none" stroke="#D62327" stroke-width="10" stroke-linejoin="round" stroke-miterlimit="10" stroke-opacity="0.46" d="
			M357.18,339.702l86.962-30.622"/>
		<path fill="none" stroke="#D62327" stroke-width="10" stroke-linejoin="round" stroke-miterlimit="10" stroke-opacity="0.46" d="
			M137.07,240.46l70,60"/>
		<path fill="none" stroke="#D62327" stroke-width="10" stroke-linejoin="round" stroke-miterlimit="10" stroke-opacity="0.46" d="
			M135.756,339.702L48.794,309.08"/>
		<path fill="none" stroke="#D62327" stroke-width="10" stroke-linejoin="round" stroke-miterlimit="10" stroke-opacity="0.46" d="
			M355.865,240.46l-70,60"/>
		<path fill="none" stroke="#D62327" stroke-width="10" stroke-linejoin="round" stroke-miterlimit="10" stroke-opacity="0.46" d="
			M379.975,0.219l16.962,90.622"/>
		<path fill="none" stroke="#D62327" stroke-width="10" stroke-linejoin="round" stroke-miterlimit="10" stroke-opacity="0.46" d="
			M379.975,198.702l16.962-90.622"/>
		<path fill="none" stroke="#D62327" stroke-width="10" stroke-linejoin="round" stroke-miterlimit="10" stroke-opacity="0.46" d="
			M183.975,339.702l86.962-30.622"/>
		<path fill="none" stroke="#D62327" stroke-width="10" stroke-linejoin="round" stroke-miterlimit="10" stroke-opacity="0.46" d="
			M-36.135,240.46l70,60"/>
		<path fill="none" stroke="#D62327" stroke-width="10" stroke-linejoin="round" stroke-miterlimit="10" stroke-opacity="0.46" d="
			M182.66,240.46l-70,60"/>
		<path fill="none" stroke="#D62327" stroke-width="10" stroke-linejoin="round" stroke-miterlimit="10" stroke-opacity="0.46" d="
			M206.77,0.219l16.962,90.622"/>
		<path fill="none" stroke="#D62327" stroke-width="10" stroke-linejoin="round" stroke-miterlimit="10" stroke-opacity="0.46" d="
			M206.77,198.702l16.962-90.622"/>
		<path fill="none" stroke="#D62327" stroke-width="10" stroke-linejoin="round" stroke-miterlimit="10" stroke-opacity="0.46" d="
			M10.77,339.702l86.962-30.622"/>
		<path fill="none" stroke="#D62327" stroke-width="10" stroke-linejoin="round" stroke-miterlimit="10" stroke-opacity="0.46" d="
			M9.455,240.46l-70,60"/>
		<path fill="none" stroke="#D62327" stroke-width="10" stroke-linejoin="round" stroke-miterlimit="10" stroke-opacity="0.46" d="
			M33.564,0.219l16.962,90.622"/>
		<path fill="none" stroke="#D62327" stroke-width="10" stroke-linejoin="round" stroke-miterlimit="10" stroke-opacity="0.46" d="
			M33.564,198.702l16.962-90.622"/>
		<path fill="none" stroke="#D62327" stroke-width="10" stroke-linejoin="round" stroke-miterlimit="10" stroke-opacity="0.46" d="
			M396.878,108.46l70-60"/>
		<path fill="none" stroke="#D62327" stroke-width="10" stroke-linejoin="round" stroke-miterlimit="10" stroke-opacity="0.46" d="
			M372.769,348.702l-16.962-90.622"/>
		<path fill="none" stroke="#D62327" stroke-width="10" stroke-linejoin="round" stroke-miterlimit="10" stroke-opacity="0.46" d="
			M568.769,489.702l-86.962-30.622"/>
		<path fill="none" stroke="#D62327" stroke-width="10" stroke-linejoin="round" stroke-miterlimit="10" stroke-opacity="0.46" d="
			M372.769,150.219l-16.962,90.622"/>
		<path fill="none" stroke="#D62327" stroke-width="10" stroke-linejoin="round" stroke-miterlimit="10" stroke-opacity="0.46" d="
			M568.769,9.219l-86.962,30.622"/>
		<path fill="none" stroke="#D62327" stroke-width="10" stroke-linejoin="round" stroke-miterlimit="10" stroke-opacity="0.46" d="
			M396.878,390.46l70,60"/>
		<path fill="none" stroke="#D62327" stroke-width="10" stroke-linejoin="round" stroke-miterlimit="10" stroke-opacity="0.46" d="
			M223.673,108.46l70-60"/>
		<path fill="none" stroke="#D62327" stroke-width="10" stroke-linejoin="round" stroke-miterlimit="10" stroke-opacity="0.46" d="
			M199.563,348.702l-16.962-90.622"/>
		<path fill="none" stroke="#D62327" stroke-width="10" stroke-linejoin="round" stroke-miterlimit="10" stroke-opacity="0.46" d="
			M395.563,489.702l-86.962-30.622"/>
		<path fill="none" stroke="#D62327" stroke-width="10" stroke-linejoin="round" stroke-miterlimit="10" stroke-opacity="0.46" d="
			M443.782,9.219l86.962,30.622"/>
		<path fill="none" stroke="#D62327" stroke-width="10" stroke-linejoin="round" stroke-miterlimit="10" stroke-opacity="0.46" d="
			M199.563,150.219l-16.962,90.622"/>
		<path fill="none" stroke="#D62327" stroke-width="10" stroke-linejoin="round" stroke-miterlimit="10" stroke-opacity="0.46" d="
			M395.563,9.219l-86.962,30.622"/>
		<path fill="none" stroke="#D62327" stroke-width="10" stroke-linejoin="round" stroke-miterlimit="10" stroke-opacity="0.46" d="
			M443.782,489.702l86.962-30.622"/>
		<path fill="none" stroke="#D62327" stroke-width="10" stroke-linejoin="round" stroke-miterlimit="10" stroke-opacity="0.46" d="
			M223.673,390.46l70,60"/>
		<path fill="none" stroke="#D62327" stroke-width="10" stroke-linejoin="round" stroke-miterlimit="10" stroke-opacity="0.46" d="
			M50.468,108.46l70-60"/>
		<path fill="none" stroke="#D62327" stroke-width="10" stroke-linejoin="round" stroke-miterlimit="10" stroke-opacity="0.46" d="
			M26.358,348.702L9.396,258.08"/>
		<path fill="none" stroke="#D62327" stroke-width="10" stroke-linejoin="round" stroke-miterlimit="10" stroke-opacity="0.46" d="
			M222.358,489.702l-86.962-30.622"/>
		<path fill="none" stroke="#D62327" stroke-width="10" stroke-linejoin="round" stroke-miterlimit="10" stroke-opacity="0.46" d="
			M442.468,390.46l-70,60"/>
		<path fill="none" stroke="#D62327" stroke-width="10" stroke-linejoin="round" stroke-miterlimit="10" stroke-opacity="0.46" d="
			M466.577,150.219l16.962,90.622"/>
		<path fill="none" stroke="#D62327" stroke-width="10" stroke-linejoin="round" stroke-miterlimit="10" stroke-opacity="0.46" d="
			M270.577,9.219l86.962,30.622"/>
		<path fill="none" stroke="#D62327" stroke-width="10" stroke-linejoin="round" stroke-miterlimit="10" stroke-opacity="0.46" d="
			M26.358,150.219L9.396,240.841"/>
		<path fill="none" stroke="#D62327" stroke-width="10" stroke-linejoin="round" stroke-miterlimit="10" stroke-opacity="0.46" d="
			M222.358,9.219l-86.962,30.622"/>
		<path fill="none" stroke="#D62327" stroke-width="10" stroke-linejoin="round" stroke-miterlimit="10" stroke-opacity="0.46" d="
			M442.468,108.46l-70-60"/>
		<path fill="none" stroke="#D62327" stroke-width="10" stroke-linejoin="round" stroke-miterlimit="10" stroke-opacity="0.46" d="
			M466.577,348.702l16.962-90.622"/>
		<path fill="none" stroke="#D62327" stroke-width="10" stroke-linejoin="round" stroke-miterlimit="10" stroke-opacity="0.46" d="
			M270.577,489.702l86.962-30.622"/>
		<path fill="none" stroke="#D62327" stroke-width="10" stroke-linejoin="round" stroke-miterlimit="10" stroke-opacity="0.46" d="
			M50.468,390.46l70,60"/>
		<path fill="none" stroke="#D62327" stroke-width="10" stroke-linejoin="round" stroke-miterlimit="10" stroke-opacity="0.46" d="
			M49.153,489.702l-86.962-30.622"/>
		<path fill="none" stroke="#D62327" stroke-width="10" stroke-linejoin="round" stroke-miterlimit="10" stroke-opacity="0.46" d="
			M269.263,390.46l-70,60"/>
		<path fill="none" stroke="#D62327" stroke-width="10" stroke-linejoin="round" stroke-miterlimit="10" stroke-opacity="0.46" d="
			M293.372,150.219l16.962,90.622"/>
		<path fill="none" stroke="#D62327" stroke-width="10" stroke-linejoin="round" stroke-miterlimit="10" stroke-opacity="0.46" d="
			M97.372,9.219l86.962,30.622"/>
		<path fill="none" stroke="#D62327" stroke-width="10" stroke-linejoin="round" stroke-miterlimit="10" stroke-opacity="0.46" d="
			M49.153,9.219l-86.962,30.622"/>
		<path fill="none" stroke="#D62327" stroke-width="10" stroke-linejoin="round" stroke-miterlimit="10" stroke-opacity="0.46" d="
			M269.263,108.46l-70-60"/>
		<path fill="none" stroke="#D62327" stroke-width="10" stroke-linejoin="round" stroke-miterlimit="10" stroke-opacity="0.46" d="
			M293.372,348.702l16.962-90.622"/>
		<path fill="none" stroke="#D62327" stroke-width="10" stroke-linejoin="round" stroke-miterlimit="10" stroke-opacity="0.46" d="
			M97.372,489.702l86.962-30.622"/>
		<path fill="none" stroke="#D62327" stroke-width="10" stroke-linejoin="round" stroke-miterlimit="10" stroke-opacity="0.46" d="
			M96.058,390.46l-70,60"/>
		<path fill="none" stroke="#D62327" stroke-width="10" stroke-linejoin="round" stroke-miterlimit="10" stroke-opacity="0.46" d="
			M120.167,150.219l16.962,90.622"/>
		<path fill="none" stroke="#D62327" stroke-width="10" stroke-linejoin="round" stroke-miterlimit="10" stroke-opacity="0.46" d="
			M-75.833,9.219l86.962,30.622"/>
		<path fill="none" stroke="#D62327" stroke-width="10" stroke-linejoin="round" stroke-miterlimit="10" stroke-opacity="0.46" d="
			M96.058,108.46l-70-60"/>
		<path fill="none" stroke="#D62327" stroke-width="10" stroke-linejoin="round" stroke-miterlimit="10" stroke-opacity="0.46" d="
			M120.167,348.702l16.962-90.622"/>
		<path fill="none" stroke="#D62327" stroke-width="10" stroke-linejoin="round" stroke-miterlimit="10" stroke-opacity="0.46" d="
			M-75.833,489.702l86.962-30.622"/>
		<path fill="none" stroke="#D62327" stroke-width="10" stroke-linejoin="round" stroke-miterlimit="10" stroke-opacity="0.46" d="
			M483.48,258.46l70-60"/>
		<path fill="none" stroke="#D62327" stroke-width="10" stroke-linejoin="round" stroke-miterlimit="10" stroke-opacity="0.46" d="
			M459.371,498.702l-16.962-90.622"/>
		<path fill="none" stroke="#D62327" stroke-width="10" stroke-linejoin="round" stroke-miterlimit="10" stroke-opacity="0.46" d="
			M459.371,300.219l-16.962,90.622"/>
		<path fill="none" stroke="#D62327" stroke-width="10" stroke-linejoin="round" stroke-miterlimit="10" stroke-opacity="0.46" d="
			M310.275,258.46l70-60"/>
		<path fill="none" stroke="#D62327" stroke-width="10" stroke-linejoin="round" stroke-miterlimit="10" stroke-opacity="0.46" d="
			M286.166,498.702l-16.962-90.622"/>
		<path fill="none" stroke="#D62327" stroke-width="10" stroke-linejoin="round" stroke-miterlimit="10" stroke-opacity="0.46" d="
			M286.166,300.219l-16.962,90.622"/>
		<path fill="none" stroke="#D62327" stroke-width="10" stroke-linejoin="round" stroke-miterlimit="10" stroke-opacity="0.46" d="
			M482.166,159.219l-86.962,30.622"/>
		<path fill="none" stroke="#D62327" stroke-width="10" stroke-linejoin="round" stroke-miterlimit="10" stroke-opacity="0.46" d="
			M137.07,258.46l70-60"/>
		<path fill="none" stroke="#D62327" stroke-width="10" stroke-linejoin="round" stroke-miterlimit="10" stroke-opacity="0.46" d="
			M112.961,498.702L95.999,408.08"/>
		<path fill="none" stroke="#D62327" stroke-width="10" stroke-linejoin="round" stroke-miterlimit="10" stroke-opacity="0.46" d="
			M357.18,159.219l86.962,30.622"/>
		<path fill="none" stroke="#D62327" stroke-width="10" stroke-linejoin="round" stroke-miterlimit="10" stroke-opacity="0.46" d="
			M112.961,300.219l-16.962,90.622"/>
		<path fill="none" stroke="#D62327" stroke-width="10" stroke-linejoin="round" stroke-miterlimit="10" stroke-opacity="0.46" d="
			M308.961,159.219l-86.962,30.622"/>
		<path fill="none" stroke="#D62327" stroke-width="10" stroke-linejoin="round" stroke-miterlimit="10" stroke-opacity="0.46" d="
			M529.07,258.46l-70-60"/>
		<path fill="none" stroke="#D62327" stroke-width="10" stroke-linejoin="round" stroke-miterlimit="10" stroke-opacity="0.46" d="
			M-36.135,258.46l70-60"/>
		<path fill="none" stroke="#D62327" stroke-width="10" stroke-linejoin="round" stroke-miterlimit="10" stroke-opacity="0.46" d="
			M379.975,300.219l16.962,90.622"/>
		<path fill="none" stroke="#D62327" stroke-width="10" stroke-linejoin="round" stroke-miterlimit="10" stroke-opacity="0.46" d="
			M183.975,159.219l86.962,30.622"/>
		<path fill="none" stroke="#D62327" stroke-width="10" stroke-linejoin="round" stroke-miterlimit="10" stroke-opacity="0.46" d="
			M135.756,159.219l-86.962,30.622"/>
		<path fill="none" stroke="#D62327" stroke-width="10" stroke-linejoin="round" stroke-miterlimit="10" stroke-opacity="0.46" d="
			M355.865,258.46l-70-60"/>
		<path fill="none" stroke="#D62327" stroke-width="10" stroke-linejoin="round" stroke-miterlimit="10" stroke-opacity="0.46" d="
			M379.975,498.702l16.962-90.622"/>
		<path fill="none" stroke="#D62327" stroke-width="10" stroke-linejoin="round" stroke-miterlimit="10" stroke-opacity="0.46" d="
			M206.77,300.219l16.962,90.622"/>
		<path fill="none" stroke="#D62327" stroke-width="10" stroke-linejoin="round" stroke-miterlimit="10" stroke-opacity="0.46" d="
			M10.77,159.219l86.962,30.622"/>
		<path fill="none" stroke="#D62327" stroke-width="10" stroke-linejoin="round" stroke-miterlimit="10" stroke-opacity="0.46" d="
			M182.66,258.46l-70-60"/>
		<path fill="none" stroke="#D62327" stroke-width="10" stroke-linejoin="round" stroke-miterlimit="10" stroke-opacity="0.46" d="
			M206.77,498.702l16.962-90.622"/>
		<path fill="none" stroke="#D62327" stroke-width="10" stroke-linejoin="round" stroke-miterlimit="10" stroke-opacity="0.46" d="
			M33.564,300.219l16.962,90.622"/>
		<path fill="none" stroke="#D62327" stroke-width="10" stroke-linejoin="round" stroke-miterlimit="10" stroke-opacity="0.46" d="
			M9.455,258.46l-70-60"/>
		<path fill="none" stroke="#D62327" stroke-width="10" stroke-linejoin="round" stroke-miterlimit="10" stroke-opacity="0.46" d="
			M33.564,498.702l16.962-90.622"/>
		<path fill="none" stroke="#D62327" stroke-width="10" stroke-linejoin="round" stroke-miterlimit="10" stroke-opacity="0.46" d="
			M396.878,408.46l70-60"/>
		<path fill="none" stroke="#D62327" stroke-width="10" stroke-linejoin="round" stroke-miterlimit="10" stroke-opacity="0.46" d="
			M372.769,450.219l-16.962,90.622"/>
		<path fill="none" stroke="#D62327" stroke-width="10" stroke-linejoin="round" stroke-miterlimit="10" stroke-opacity="0.46" d="
			M568.769,309.219l-86.962,30.622"/>
		<path fill="none" stroke="#D62327" stroke-width="10" stroke-linejoin="round" stroke-miterlimit="10" stroke-opacity="0.46" d="
			M223.673,408.46l70-60"/>
		<path fill="none" stroke="#D62327" stroke-width="10" stroke-linejoin="round" stroke-miterlimit="10" stroke-opacity="0.46" d="
			M443.782,309.219l86.962,30.622"/>
		<path fill="none" stroke="#D62327" stroke-width="10" stroke-linejoin="round" stroke-miterlimit="10" stroke-opacity="0.46" d="
			M199.563,450.219l-16.962,90.622"/>
		<path fill="none" stroke="#D62327" stroke-width="10" stroke-linejoin="round" stroke-miterlimit="10" stroke-opacity="0.46" d="
			M395.563,309.219l-86.962,30.622"/>
		<path fill="none" stroke="#D62327" stroke-width="10" stroke-linejoin="round" stroke-miterlimit="10" stroke-opacity="0.46" d="
			M50.468,408.46l70-60"/>
		<path fill="none" stroke="#D62327" stroke-width="10" stroke-linejoin="round" stroke-miterlimit="10" stroke-opacity="0.46" d="
			M466.577,450.219l16.962,90.622"/>
		<path fill="none" stroke="#D62327" stroke-width="10" stroke-linejoin="round" stroke-miterlimit="10" stroke-opacity="0.46" d="
			M270.577,309.219l86.962,30.622"/>
		<path fill="none" stroke="#D62327" stroke-width="10" stroke-linejoin="round" stroke-miterlimit="10" stroke-opacity="0.46" d="
			M26.358,450.219L9.396,540.841"/>
		<path fill="none" stroke="#D62327" stroke-width="10" stroke-linejoin="round" stroke-miterlimit="10" stroke-opacity="0.46" d="
			M222.358,309.219l-86.962,30.622"/>
		<path fill="none" stroke="#D62327" stroke-width="10" stroke-linejoin="round" stroke-miterlimit="10" stroke-opacity="0.46" d="
			M442.468,408.46l-70-60"/>
		<path fill="none" stroke="#D62327" stroke-width="10" stroke-linejoin="round" stroke-miterlimit="10" stroke-opacity="0.46" d="
			M293.372,450.219l16.962,90.622"/>
		<path fill="none" stroke="#D62327" stroke-width="10" stroke-linejoin="round" stroke-miterlimit="10" stroke-opacity="0.46" d="
			M97.372,309.219l86.962,30.622"/>
		<path fill="none" stroke="#D62327" stroke-width="10" stroke-linejoin="round" stroke-miterlimit="10" stroke-opacity="0.46" d="
			M49.153,309.219l-86.962,30.622"/>
		<path fill="none" stroke="#D62327" stroke-width="10" stroke-linejoin="round" stroke-miterlimit="10" stroke-opacity="0.46" d="
			M269.263,408.46l-70-60"/>
		<path fill="none" stroke="#D62327" stroke-width="10" stroke-linejoin="round" stroke-miterlimit="10" stroke-opacity="0.46" d="
			M120.167,450.219l16.962,90.622"/>
		<path fill="none" stroke="#D62327" stroke-width="10" stroke-linejoin="round" stroke-miterlimit="10" stroke-opacity="0.46" d="
			M-75.833,309.219l86.962,30.622"/>
		<path fill="none" stroke="#D62327" stroke-width="10" stroke-linejoin="round" stroke-miterlimit="10" stroke-opacity="0.46" d="
			M96.058,408.46l-70-60"/>
		<path fill="none" stroke="#D62327" stroke-width="10" stroke-linejoin="round" stroke-miterlimit="10" stroke-opacity="0.46" d="
			M310.275,558.46l70-60"/>
		<path fill="none" stroke="#D62327" stroke-width="10" stroke-linejoin="round" stroke-miterlimit="10" stroke-opacity="0.46" d="
			M482.166,459.219l-86.962,30.622"/>
		<path fill="none" stroke="#D62327" stroke-width="10" stroke-linejoin="round" stroke-miterlimit="10" stroke-opacity="0.46" d="
			M137.07,558.46l70-60"/>
		<path fill="none" stroke="#D62327" stroke-width="10" stroke-linejoin="round" stroke-miterlimit="10" stroke-opacity="0.46" d="
			M357.18,459.219l86.962,30.622"/>
		<path fill="none" stroke="#D62327" stroke-width="10" stroke-linejoin="round" stroke-miterlimit="10" stroke-opacity="0.46" d="
			M308.961,459.219l-86.962,30.622"/>
		<path fill="none" stroke="#D62327" stroke-width="10" stroke-linejoin="round" stroke-miterlimit="10" stroke-opacity="0.46" d="
			M529.07,558.46l-70-60"/>
		<path fill="none" stroke="#D62327" stroke-width="10" stroke-linejoin="round" stroke-miterlimit="10" stroke-opacity="0.46" d="
			M-36.135,558.46l70-60"/>
		<path fill="none" stroke="#D62327" stroke-width="10" stroke-linejoin="round" stroke-miterlimit="10" stroke-opacity="0.46" d="
			M183.975,459.219l86.962,30.622"/>
		<path fill="none" stroke="#D62327" stroke-width="10" stroke-linejoin="round" stroke-miterlimit="10" stroke-opacity="0.46" d="
			M135.756,459.219l-86.962,30.622"/>
		<path fill="none" stroke="#D62327" stroke-width="10" stroke-linejoin="round" stroke-miterlimit="10" stroke-opacity="0.46" d="
			M355.865,558.46l-70-60"/>
		<path fill="none" stroke="#D62327" stroke-width="10" stroke-linejoin="round" stroke-miterlimit="10" stroke-opacity="0.46" d="
			M10.77,459.219l86.962,30.622"/>
		<path fill="none" stroke="#D62327" stroke-width="10" stroke-linejoin="round" stroke-miterlimit="10" stroke-opacity="0.46" d="
			M182.66,558.46l-70-60"/>
		<path fill="none" stroke="#D62327" stroke-width="10" stroke-linejoin="round" stroke-miterlimit="10" d="M5.672,240.46"/>
	</g>
</g>
</svg>
