<?xml version="1.0" encoding="utf-8"?>
<!-- Generator: Adobe Illustrator 16.0.0, SVG Export Plug-In . SVG Version: 6.00 Build 0)  -->
<!DOCTYPE svg PUBLIC "-//W3C//DTD SVG 1.1//EN" "http://www.w3.org/Graphics/SVG/1.1/DTD/svg11.dtd">
<svg version="1.1" id="Layer_1" xmlns="http://www.w3.org/2000/svg" xmlns:xlink="http://www.w3.org/1999/xlink" x="0px" y="0px"
	 width="238.5px" height="242.5px" viewBox="0 0 238.5 242.5" enable-background="new 0 0 238.5 242.5" xml:space="preserve">
<g>
	
		<path fill="#C54646" fill-opacity="0.5882" stroke="#000000" stroke-linejoin="round" stroke-miterlimit="10" stroke-opacity="0" d="
		M162.155,223.207l43.15-24.739l0.15-49.739l-43-25l-43.15,24.739l-0.15,49.739L162.155,223.207"/>
	
		<path fill="#C54646" fill-opacity="0.5882" stroke="#000000" stroke-linejoin="round" stroke-miterlimit="10" stroke-opacity="0" d="
		M186.403,32.681l-43-25l-43.15,24.739l-0.15,49.739l43,25l43.15-24.739L186.403,32.681"/>
	
		<path fill="#C54646" fill-opacity="0.5882" stroke="#000000" stroke-linejoin="round" stroke-miterlimit="10" stroke-opacity="0" d="
		M9.279,134.944l43.15,24.739l43-25l-0.15-49.739l-43.15-24.739l-43,25L9.279,134.944"/>
	
		<path fill="#C54646" fill-opacity="0.5882" stroke="#000000" stroke-linejoin="round" stroke-miterlimit="10" stroke-opacity="0" d="
		M162.155,18.681l-43,25l0.15,49.739l43.15,24.74l43-25l-0.15-49.739L162.155,18.681"/>
	
		<path fill="#C54646" fill-opacity="0.5882" stroke="#000000" stroke-linejoin="round" stroke-miterlimit="10" stroke-opacity="0" d="
		M186.403,209.207l-0.15-49.739l-43.15-24.739l-43,25l0.15,49.739l43.15,24.739L186.403,209.207"/>
	
		<path fill="#C54646" fill-opacity="0.5882" stroke="#000000" stroke-linejoin="round" stroke-miterlimit="10" stroke-opacity="0" d="
		M9.279,106.944l-0.15,49.739l43,25l43.15-24.739l0.15-49.739l-43-25L9.279,106.944"/>
	
		<path fill="#C54646" fill-opacity="0.5882" stroke="#000000" stroke-linejoin="round" stroke-miterlimit="10" stroke-opacity="0" d="
		M76.403,18.681L33.252,43.42l-0.15,49.739l43,25l43.15-24.74l0.15-49.739L76.403,18.681"/>
	
		<path fill="#C54646" fill-opacity="0.5882" stroke="#000000" stroke-linejoin="round" stroke-miterlimit="10" stroke-opacity="0" d="
		M52.155,209.207l43,25l43.15-24.739l0.15-49.739l-43-25l-43.15,24.739L52.155,209.207"/>
	
		<path fill="#C54646" fill-opacity="0.5882" stroke="#000000" stroke-linejoin="round" stroke-miterlimit="10" stroke-opacity="0" d="
		M229.279,134.944l0.15-49.739l-43-25l-43.15,24.739l-0.15,49.739l43,25L229.279,134.944"/>
	
		<path fill="#C54646" fill-opacity="0.5882" stroke="#000000" stroke-linejoin="round" stroke-miterlimit="10" stroke-opacity="0" d="
		M229.279,106.944l-43.15-24.739l-43,25l0.15,49.739l43.15,24.739l43-25L229.279,106.944"/>
	
		<path fill="#C54646" fill-opacity="0.5882" stroke="#000000" stroke-linejoin="round" stroke-miterlimit="10" stroke-opacity="0" d="
		M76.403,223.207l43-25l-0.15-49.739l-43.15-24.739l-43,25l0.15,49.739L76.403,223.207"/>
	
		<path fill="#C54646" fill-opacity="0.5882" stroke="#000000" stroke-linejoin="round" stroke-miterlimit="10" stroke-opacity="0" d="
		M52.155,32.681l0.15,49.739l43.15,24.739l43-25l-0.15-49.739L95.155,7.681L52.155,32.681"/>
</g>
</svg>
